#!OML:ASF H:\Terrain\Patient Classification 1\Walking\liu\liu.ASF
:FULLY-SPECIFIED
:DEGREES
388
root 9.462830 17.084999 18.130600 5.897740 -0.246654 -5.053730
lowerback -7.106847 2.717825 1.828464
upperback -0.131885 3.357882 3.668148
thorax 3.741958 1.673199 3.078691
lowerneck -21.163671 -6.832793 -14.639131
upperneck 23.936001 -8.924168 14.662451
head 12.530431 -3.574791 6.473291
rclavicle 0.000000 -0.000000
rhumerus -30.651171 17.990831 -91.444649
rradius 48.050858
rwrist -23.143120
rhand -34.721500 -25.024450
rfingers 7.837522
rthumb -5.311603 -57.941841
lclavicle 0.000000 -0.000000
lhumerus -55.681122 -12.748670 104.937141
lradius 28.847610
lwrist 10.590800
lhand -14.349170 -24.793449
lfingers 7.837522
lthumb 14.355111 7.735464
rfemur 2.577069 5.722156 34.517891
rtibia 16.164940
rfoot -17.476580 6.263895
rtoes -16.294741
lfemur -44.870541 2.929168 -16.954849
ltibia 32.369259
lfoot -15.970790 10.124587
ltoes -13.843720
389
root 9.472780 17.084499 18.273500 5.880580 -0.554437 -4.798310
lowerback -7.322183 2.904429 1.508892
upperback 0.092710 3.618670 3.580401
thorax 4.073630 1.795849 3.211186
lowerneck -21.472992 -6.983163 -14.719541
upperneck 23.851851 -9.067916 14.669930
head 12.587300 -3.634620 6.459563
rclavicle 0.000000 -0.000000
rhumerus -29.752031 17.910641 -91.377556
rradius 47.199791
rwrist -23.277100
rhand -35.526810 -24.216391
rfingers 7.837522
rthumb -6.089193 -57.114861
lclavicle 0.000000 -0.000000
lhumerus -55.658573 -12.882541 105.127327
lradius 28.883362
lwrist 10.896688
lhand -14.222341 -23.781120
lfingers 7.837522
lthumb 14.477430 8.739929
rfemur 3.968514 6.054664 34.161491
rtibia 14.737250
rfoot -16.990931 6.303440
rtoes -15.025230
lfemur -44.889790 2.789490 -17.251081
ltibia 30.771290
lfoot -16.408920 10.377368
ltoes -11.588060
390
root 9.477010 17.074100 18.400101 5.946400 -0.646740 -5.138510
lowerback -7.448793 2.952125 1.719454
upperback 0.137975 3.653749 3.731156
thorax 4.193695 1.815000 3.262743
lowerneck -21.439882 -6.991787 -14.677191
upperneck 23.755161 -9.055497 14.552670
head 12.534170 -3.640142 6.404574
rclavicle -0.000000 -0.000000
rhumerus -29.237780 18.021299 -91.431236
rradius 46.578621
rwrist -23.279192
rhand -36.427380 -25.002230
rfingers 7.837522
rthumb -6.958601 -57.876282
lclavicle -0.000000 -0.000000
lhumerus -55.843700 -12.557820 105.118645
lradius 29.023281
lwrist 10.963084
lhand -14.320900 -23.902891
lfingers 7.837522
lthumb 14.382279 8.624309
rfemur 5.245229 6.526762 34.632401
rtibia 13.188011
rfoot -16.484489 5.980194
rtoes -14.460271
lfemur -45.268520 2.504150 -16.630350
ltibia 29.302681
lfoot -16.469421 10.665941
ltoes -13.399870
391
root 9.487060 17.051701 18.525900 5.999630 -0.737290 -5.766120
lowerback -7.578318 3.026958 2.314103
upperback 0.205745 3.688729 3.948274
thorax 4.357430 1.840707 3.170541
lowerneck -21.436361 -6.915304 -14.663771
upperneck 23.625582 -8.957211 14.628901
head 12.472570 -3.586198 6.443954
rclavicle -0.000000 -0.000000
rhumerus -28.926041 17.929121 -91.468300
rradius 46.249722
rwrist -23.091311
rhand -35.454762 -24.247412
rfingers 7.837522
rthumb -6.019563 -57.147751
lclavicle -0.000000 -0.000000
lhumerus -55.998470 -12.135091 104.980263
lradius 29.201702
lwrist 10.825529
lhand -13.804340 -23.897501
lfingers 7.837522
lthumb 14.880251 8.597204
rfemur 6.579419 6.363280 35.326279
rtibia 11.427020
rfoot -15.929540 6.316267
rtoes -15.647941
lfemur -45.671669 2.038113 -15.483820
ltibia 27.923830
lfoot -16.627050 10.989451
ltoes -18.348991
392
root 9.503350 17.037901 18.660500 5.923810 -0.811229 -6.141150
lowerback -7.514705 3.098117 2.737482
upperback 0.249238 3.745104 4.074290
thorax 4.382719 1.875709 3.069363
lowerneck -21.438009 -6.890851 -14.764421
upperneck 23.595219 -8.915225 14.735050
head 12.465090 -3.563571 6.509008
rclavicle -0.000000 -0.000000
rhumerus -28.879730 17.750151 -91.527039
rradius 46.112553
rwrist -22.798271
rhand -34.884739 -23.490391
rfingers 7.837522
rthumb -5.469222 -56.404263
lclavicle -0.000000 -0.000000
lhumerus -56.274242 -11.793430 104.932297
lradius 29.374182
lwrist 10.774137
lhand -13.222110 -23.677500
lfingers 7.837522
lthumb 15.441360 8.779067
rfemur 7.920693 6.373862 35.676964
rtibia 9.976791
rfoot -15.655971 6.410690
rtoes -16.988070
lfemur -45.708412 1.498233 -14.699520
ltibia 26.484591
lfoot -16.945940 11.040920
ltoes -18.949699
393
root 9.520570 17.038700 18.796900 5.960240 -0.813066 -6.275270
lowerback -7.547233 3.133493 2.885124
upperback 0.166302 3.779743 4.136737
thorax 4.318820 1.895289 3.053985
lowerneck -21.112190 -6.864891 -14.899170
upperneck 23.609411 -8.881863 14.748140
head 12.408220 -3.570006 6.545814
rclavicle 0.000000 0.000000
rhumerus -29.014702 17.816261 -91.661461
rradius 45.979118
rwrist -22.827641
rhand -35.258854 -23.624701
rfingers 7.837522
rthumb -5.830407 -56.529774
lclavicle 0.000000 0.000000
lhumerus -56.697632 -11.592899 105.089607
lradius 29.459763
lwrist 10.929160
lhand -13.091539 -25.915010
lfingers 7.837522
lthumb 15.567201 6.532834
rfemur 9.397872 6.312900 35.733280
rtibia 7.993854
rfoot -14.405710 6.409656
rtoes -15.816020
lfemur -45.869228 0.651631 -14.089240
ltibia 25.284161
lfoot -17.484060 11.509960
ltoes -16.315420
394
root 9.535300 17.042500 18.931101 6.315230 -0.950264 -5.793910
lowerback -8.008022 3.167692 2.253713
upperback 0.093467 3.864542 3.996982
thorax 4.469652 1.925770 3.294467
lowerneck -20.859411 -6.804149 -14.989261
upperneck 23.474001 -8.799604 14.804021
head 12.302180 -3.543177 6.593290
rclavicle -0.000000 0.000000
rhumerus -28.860479 17.774351 -91.782463
rradius 45.698730
rwrist -22.659340
rhand -34.670021 -24.413290
rfingers 7.837522
rthumb -5.261861 -57.331890
lclavicle -0.000000 0.000000
lhumerus -56.875614 -11.419430 105.211586
lradius 29.365490
lwrist 10.811339
lhand -11.285450 -22.096251
lfingers 7.837522
lthumb 17.307070 10.222213
rfemur 11.192390 6.411284 35.017731
rtibia 4.615138
rfoot -12.140700 6.595523
rtoes -12.083500
lfemur -46.368519 -0.393016 -14.048981
ltibia 24.244551
lfoot -17.867849 12.265330
ltoes -13.453441
395
root 9.534890 17.026300 19.070101 6.268480 -1.117140 -6.577010
lowerback -8.073087 3.300572 2.934327
upperback 0.217175 3.964444 4.227894
thorax 4.659820 1.985984 3.176294
lowerneck -20.974361 -6.790916 -14.807430
upperneck 23.380499 -8.769409 14.643641
head 12.268411 -3.528217 6.499779
rclavicle 0.000000 0.000000
rhumerus -28.557652 17.480869 -91.898293
rradius 45.336391
rwrist -22.130791
rhand -33.843151 -25.144569
rfingers 7.837522
rthumb -4.463459 -58.079781
lclavicle 0.000000 0.000000
lhumerus -56.974171 -11.181610 105.155823
lradius 29.336231
lwrist 10.314668
lhand -11.295461 -22.686951
lfingers 7.837522
lthumb 17.297390 9.632348
rfemur 14.111681 6.561951 35.945473
rtibia -0.000000
rfoot -9.666492 6.647828
rtoes -9.801716
lfemur -46.525162 -1.190937 -12.322090
ltibia 23.385889
lfoot -17.693720 13.202090
ltoes -13.667611
396
root 9.553050 17.007000 19.214300 6.184070 -1.191250 -6.942150
lowerback -8.099344 3.444782 3.413212
upperback 0.354691 4.103110 4.304707
thorax 4.840528 2.063798 3.013692
lowerneck -21.268391 -6.914028 -14.759911
upperneck 23.476419 -8.889639 14.484250
head 12.370270 -3.585978 6.410756
rclavicle -0.000000 -0.000000
rhumerus -28.406511 17.208401 -91.890259
rradius 45.062267
rwrist -21.927950
rhand -33.848763 -24.609421
rfingers 7.837522
rthumb -4.468894 -57.544525
lclavicle -0.000000 -0.000000
lhumerus -57.093849 -11.105161 105.235130
lradius 29.451622
lwrist 9.975219
lhand -13.110571 -27.517490
lfingers 7.837522
lthumb 15.548940 4.931553
rfemur 14.866501 6.574403 36.282951
rtibia -0.000000
rfoot -9.657461 6.842264
rtoes -9.063626
lfemur -46.508770 -2.465232 -11.045210
ltibia 22.583111
lfoot -17.328630 15.222130
ltoes -18.126022
